<svg width="89" height="191" viewBox="0 0 89 191" fill="none" xmlns="http://www.w3.org/2000/svg">
<g clip-path="url(#clip0_863_5786)">
<path fill-rule="evenodd" clip-rule="evenodd" d="M10.2923 0.644084C16.4037 0.262824 21.7858 6.83309 22.3225 15.3134C22.8556 23.7973 18.3396 30.9858 12.2319 31.367C6.12428 31.7483 0.738437 25.178 0.205404 16.6941C-0.331329 8.21378 4.18464 1.02534 10.2923 0.644084ZM7.46797 71.7066C10.9327 77.1887 16.8219 81.8637 22.119 86.7461C39.498 102.759 37.0179 114.996 23.4886 132.849C16.7479 141.744 9.33728 151.264 9.30767 163.946C9.23734 193.729 58.8834 203.593 64.3507 165.612C66.4125 151.305 66.0571 132.383 78.0392 113.845C90.8949 93.9567 91.7722 65.6731 72.9902 49.3455C53.5382 32.4331 19.6093 28.0949 6.27975 42.1904C0.564462 48.235 -1.01983 58.2922 7.46797 71.7066ZM86.9416 33.6657C89.4365 35.2537 89.6993 39.3661 87.5302 42.8493C85.361 46.3324 81.578 47.8686 79.0831 46.2769C76.5882 44.6889 76.3254 40.5765 78.4982 37.0933C80.6674 33.6102 84.4467 32.074 86.9416 33.6657ZM74.06 20.8435C77.2878 22.239 78.3724 27.0177 76.4808 31.5188C74.5893 36.0162 70.4361 38.5333 67.2083 37.1378C63.9805 35.7423 62.8959 30.9599 64.7874 26.4625C66.6827 21.9651 70.8322 19.448 74.06 20.8435ZM55.5075 9.82395C59.657 10.1645 62.6886 15.1172 62.2703 20.8842C61.8521 26.6475 58.1505 31.045 53.9972 30.7045C49.844 30.3602 46.8161 25.4075 47.2344 19.6442C47.6527 13.8772 51.3543 9.47971 55.5075 9.82395ZM36.0074 5.28954C40.3087 5.47832 43.629 10.4754 43.4254 16.446C43.2181 22.4167 39.5647 27.1028 35.2634 26.9104C30.9621 26.7216 27.6418 21.7245 27.8453 15.7539C28.0526 9.78324 31.7061 5.09706 36.0074 5.28954Z" fill="black"/>
</g>
<defs>
<clipPath id="clip0_863_5786">
<rect width="88.8387" height="189.742" fill="white" transform="translate(0.161133 0.629028)"/>
</clipPath>
</defs>
</svg>
