<svg width="89" height="191" viewBox="0 0 89 191" fill="none" xmlns="http://www.w3.org/2000/svg">
<g clip-path="url(#clip0_863_5791)">
<path fill-rule="evenodd" clip-rule="evenodd" d="M78.7077 0.644084C72.5963 0.262824 67.2142 6.83309 66.6775 15.3134C66.1444 23.7973 70.6604 30.9858 76.7681 31.367C82.8757 31.7483 88.2616 25.178 88.7946 16.6941C89.3313 8.21378 84.8154 1.02534 78.7077 0.644084ZM81.532 71.7066C78.0673 77.1887 72.1781 81.8637 66.881 86.7461C49.502 102.759 51.9821 114.996 65.5114 132.849C72.2521 141.744 79.6627 151.264 79.6923 163.946C79.7627 193.729 30.1166 203.593 24.6493 165.612C22.5875 151.305 22.9429 132.383 10.9608 113.845C-1.89492 93.9567 -2.7722 65.6731 16.0098 49.3455C35.4618 32.4331 69.3907 28.0949 82.7202 42.1904C88.4355 48.235 90.0198 58.2922 81.532 71.7066ZM2.0584 33.6657C-0.436487 35.2537 -0.699301 39.3661 1.46984 42.8493C3.63899 46.3324 7.42204 47.8686 9.91692 46.2769C12.4118 44.6889 12.6746 40.5765 10.5018 37.0933C8.33263 33.6102 4.55329 32.074 2.0584 33.6657ZM14.94 20.8435C11.7122 22.239 10.6276 27.0177 12.5192 31.5188C14.4107 36.0162 18.5639 38.5333 21.7917 37.1378C25.0195 35.7423 26.1041 30.9599 24.2126 26.4625C22.3173 21.9651 18.1678 19.448 14.94 20.8435ZM33.4925 9.82395C29.343 10.1645 26.3114 15.1172 26.7297 20.8842C27.1479 26.6475 30.8495 31.045 35.0028 30.7045C39.156 30.3602 42.1839 25.4075 41.7656 19.6442C41.3473 13.8772 37.6457 9.47971 33.4925 9.82395ZM52.9926 5.28954C48.6913 5.47832 45.371 10.4754 45.5746 16.446C45.7819 22.4167 49.4353 27.1028 53.7366 26.9104C58.0379 26.7216 61.3582 21.7245 61.1547 15.7539C60.9474 9.78324 57.2939 5.09706 52.9926 5.28954Z" fill="black"/>
</g>
<defs>
<clipPath id="clip0_863_5791">
<rect width="88.8387" height="189.742" fill="white" transform="matrix(-1 0 0 1 88.8389 0.629028)"/>
</clipPath>
</defs>
</svg>
