<svg width="63" height="82" viewBox="0 0 63 82" fill="none" xmlns="http://www.w3.org/2000/svg">
<g clip-path="url(#clip0_863_5783)">
<path d="M1.92659 41.6902L1.75322 41.8702L0.366211 41.3168V20.8518C0.366211 19.9049 0.646279 19.0113 1.1264 18.2578C1.21975 18.1111 1.31978 17.9644 1.43314 17.831C1.5465 17.6843 1.66653 17.551 1.78656 17.4309L1.79989 17.4176C2.15998 17.0575 2.58675 16.7441 3.0602 16.5107L3.08021 16.504L3.3136 16.3907L3.34027 16.3773C3.91374 16.1306 4.5539 15.9906 5.21406 15.9906H5.24073C6.58106 15.9906 7.80136 16.5374 8.68157 17.4176C9.04166 17.7777 9.35507 18.2045 9.58846 18.6712L9.6018 18.6979L9.70849 18.9313L9.71516 18.9513C9.96189 19.5248 10.1019 20.1649 10.1019 20.8251V20.8318V20.8584V37.5025V38.256L9.3484 38.3027C7.29457 38.4294 5.40077 39.0896 3.80038 40.1498C3.4803 40.3632 3.17356 40.5899 2.88016 40.83C2.60676 41.0567 2.32002 41.3101 2.03995 41.5968L1.92659 41.6902ZM44.1236 55.5802L44.9438 55.887L45.2972 56.1471C45.3572 56.2271 45.4305 56.2938 45.5172 56.3538L45.6239 56.4138V56.4205C45.7373 56.4738 45.8573 56.5005 45.984 56.5005H46.004C46.1241 56.5005 46.2307 56.4805 46.3308 56.4405L46.4108 56.4004L46.4908 56.3538L46.5175 56.3404L46.5442 56.3271C46.9042 56.1204 47.3844 55.7603 47.9112 55.3269C48.4446 54.8801 49.0514 54.3333 49.6516 53.7731C50.8252 52.6662 52.1589 51.3325 52.6923 50.8058L52.719 50.7791C54.4061 49.092 56.1265 48.3118 57.6402 48.2118C57.9469 48.1918 58.2537 48.1984 58.5404 48.2318C58.8338 48.2651 59.1206 48.3251 59.394 48.4118H59.4006L59.434 48.4252H59.4406C59.9808 48.5985 60.4809 48.8719 60.921 49.2254L60.941 49.2454L61.1477 49.4254L61.1877 49.4588L61.3811 49.6521L61.4145 49.6921L61.4211 49.6988L61.4278 49.7122C61.8012 50.1256 62.1013 50.6124 62.3213 51.1525L62.3347 51.1725L62.4347 51.4526L62.448 51.5126L62.5281 51.7993L62.5347 51.8327L62.5414 51.8727C62.9215 53.4597 62.6081 55.3869 61.2878 57.3207C61.041 57.6874 60.7476 58.0609 60.4275 58.4209C60.1075 58.781 59.7474 59.1478 59.3473 59.5012L59.2939 59.5479L59.2272 59.6079L59.1806 59.6546L59.1539 59.6812L42.8032 76.2186L42.2364 76.8388L42.1964 76.7988C41.2962 77.619 40.416 78.3258 39.5224 78.9326C38.4555 79.6528 37.3752 80.2329 36.255 80.673C35.128 81.1198 33.9477 81.4399 32.7008 81.6466C31.4538 81.8467 30.1401 81.9467 28.7398 81.9467H18.1372C14.603 81.9467 11.3156 80.9064 8.56155 79.126C8.03475 78.7859 7.51462 78.4058 7.0145 77.9991C6.50771 77.5856 6.03426 77.1588 5.60082 76.7187L5.58749 76.7054C4.24716 75.3451 3.11355 73.758 2.25334 72.0176C2.08663 71.6708 1.92659 71.3241 1.77989 70.9773C0.873001 68.8168 0.372879 66.4496 0.366211 63.969V63.949V49.9655C0.366211 48.6786 0.60627 47.4383 1.03304 46.3047V46.298C1.11306 46.0913 1.20642 45.8712 1.30644 45.6512C1.40646 45.4378 1.51316 45.2244 1.62652 45.0177L1.63319 45.0043L1.65319 44.971L1.66653 44.9443C2.07996 44.2975 2.57342 43.6907 3.12688 43.1505L3.14022 43.1372L3.44696 42.8505L3.47364 42.8305L3.79371 42.5571L3.82039 42.5304L3.83372 42.5171C4.54056 41.9503 5.32742 41.4701 6.1743 41.11C6.36768 41.03 6.55439 40.95 6.68109 40.91C7.72134 40.5299 8.84828 40.3232 10.0219 40.3232H10.0486H10.4753L10.6687 40.3499L10.8488 40.3965L10.9888 40.4099H22.5049H22.5783H22.6316H22.705H34.2211H34.2545H34.3012H34.3345H35.188C36.8818 40.4099 38.4822 40.8433 39.8892 41.6035C40.1693 41.7569 40.436 41.9169 40.6827 42.0836H40.6894C40.9294 42.2437 41.1828 42.4304 41.4296 42.6304L41.4362 42.6371L41.4496 42.6504C42.6632 43.644 43.6501 44.9243 44.2836 46.3847C44.417 46.6847 44.5303 46.9782 44.617 47.2582C44.717 47.5583 44.7971 47.865 44.8704 48.1718V48.1784L44.8771 48.2251L44.8904 48.2985C44.8971 48.3518 44.9037 48.4052 44.9171 48.4452L44.9238 48.4652L44.9504 48.5385L44.9638 48.5785L45.0438 48.8186L45.0838 49.252V49.2787L45.0971 49.4521V49.4788L45.1105 49.7855V49.8055V49.9722V49.9789V52.9329V54.0399L44.0569 53.6931C42.4165 53.153 40.8494 52.7862 39.3691 52.5862C39.0357 52.5395 38.7156 52.5062 38.4222 52.4728C38.1221 52.4462 37.8087 52.4195 37.4953 52.4061L36.8151 52.3861C34.9146 52.3595 33.1609 52.6329 31.6072 53.1663C31.2671 53.2864 30.947 53.4064 30.6603 53.5331C30.3602 53.6664 30.0601 53.8065 29.7801 53.9599L29.3066 54.2333C27.8196 55.1268 26.5859 56.3271 25.6457 57.7941C25.4523 58.1009 25.2723 58.3943 25.1256 58.681C24.9656 58.9811 24.8188 59.3078 24.6721 59.6412L24.6655 59.6612C24.212 60.7415 23.8853 61.9285 23.6986 63.2154C23.6586 63.5089 23.6186 63.7956 23.5985 64.069C23.5785 64.2957 23.5519 64.5358 23.5452 64.7758L25.319 64.7958C25.3723 63.8956 25.5057 63.0354 25.6991 62.2352C25.7591 61.9885 25.8191 61.7551 25.8791 61.5484C25.9391 61.3483 26.0125 61.1216 26.0992 60.8949L26.3125 60.3481C26.906 58.9277 27.7662 57.7208 28.8465 56.7605C29.0599 56.5738 29.2866 56.3938 29.5067 56.2271C29.7534 56.047 29.9868 55.887 30.2135 55.7536L30.2268 55.747L30.2468 55.7336C31.3805 55.0535 32.7008 54.58 34.1811 54.3399C34.4812 54.2933 34.808 54.2466 35.1414 54.2199C35.4681 54.1866 35.8082 54.1732 36.1349 54.1599H36.1549H36.8084H36.8218C38.3555 54.1799 40.0159 54.42 41.783 54.8734C42.1898 54.9734 42.5698 55.0868 42.9299 55.2002C43.3434 55.3269 43.7368 55.4602 44.1102 55.5869L44.1236 55.5802ZM32.5341 38.276H24.4054H23.6052V37.4758V4.86787C23.6052 3.52754 24.152 2.30725 25.0322 1.42703C25.3923 1.06694 25.8191 0.753533 26.2859 0.520142L26.3059 0.513474L26.5393 0.400113L26.5659 0.386777C27.1394 0.14005 27.7729 1.54619e-05 28.4397 1.54619e-05V-0.00665283H28.4664V1.54619e-05C29.8067 1.54619e-05 31.027 0.546816 31.9072 1.42703C32.2673 1.78712 32.5741 2.21389 32.8141 2.68067L32.8275 2.70067L32.9342 2.93407L32.9475 2.96074C33.1942 3.53421 33.3343 4.1677 33.3343 4.83453V4.8412V4.86787V37.4692V38.2694H32.5341V38.276ZM36.1283 38.3094L35.9816 38.296L35.2347 38.236V37.4958V12.6764C35.2347 11.3361 35.7815 10.1158 36.6617 9.2356C37.0218 8.87552 37.4486 8.56877 37.922 8.32871L37.9487 8.31538L38.1821 8.20869L38.2021 8.19535C38.7756 7.94862 39.4091 7.80859 40.0759 7.80859H40.1026C41.0495 7.80859 41.943 8.08866 42.6965 8.56877L42.7032 8.57544C42.8499 8.66213 42.99 8.76882 43.1233 8.87552L43.13 8.88218C43.27 8.98888 43.4034 9.10891 43.5234 9.22893L43.5367 9.24227C43.8968 9.60236 44.2102 10.0291 44.4436 10.4959L44.4503 10.5159L44.5637 10.7493L44.577 10.776C44.8237 11.3495 44.9638 11.9896 44.9638 12.6498V12.6764V41.2834L43.5834 41.8436L43.4501 41.7102C42.0764 40.3365 40.3626 39.2963 38.4555 38.7428C38.0754 38.6294 37.682 38.5361 37.3019 38.4694C36.9351 38.3961 36.535 38.3427 36.1283 38.3094ZM20.8245 38.276H12.6959H11.889V37.4758V20.8518V12.5964C11.889 11.6495 12.1691 10.7493 12.6492 9.99579C12.7426 9.84242 12.8493 9.69572 12.956 9.56235C13.0693 9.41565 13.1893 9.28228 13.3027 9.16892L13.316 9.15558C13.6761 8.7955 14.1029 8.48875 14.5763 8.2487L14.5964 8.24203L14.8297 8.13533L14.8564 8.122C15.4299 7.87527 16.0634 7.73524 16.7302 7.73524H16.7569C18.0972 7.73524 19.3175 8.28204 20.1977 9.16225C20.5578 9.52234 20.8645 9.94911 21.1046 10.4159L21.1113 10.4359L21.2246 10.6693L21.238 10.696C21.4847 11.2694 21.6247 11.9096 21.6247 12.5698V12.5964V37.4692V38.2694H20.8245V38.276Z" fill="black"/>
</g>
<defs>
<clipPath id="clip0_863_5783">
<rect width="62.3419" height="81.94" fill="white" transform="translate(0.367188)"/>
</clipPath>
</defs>
</svg>
