<svg width="63" height="82" viewBox="0 0 63 82" fill="none" xmlns="http://www.w3.org/2000/svg">
<g clip-path="url(#clip0_863_5788)">
<path d="M60.7824 41.6902L60.9558 41.8702L62.3428 41.3168V20.8518C62.3428 19.9049 62.0627 19.0113 61.5826 18.2578C61.4892 18.1111 61.3892 17.9644 61.2758 17.831C61.1625 17.6843 61.0425 17.551 60.9224 17.4309L60.9091 17.4176C60.549 17.0575 60.1222 16.7441 59.6488 16.5107L59.6288 16.504L59.3954 16.3907L59.3687 16.3773C58.7952 16.1306 58.1551 15.9906 57.4949 15.9906H57.4683C56.1279 15.9906 54.9076 16.5374 54.0274 17.4176C53.6673 17.7777 53.3539 18.2045 53.1205 18.6712L53.1072 18.6979L53.0005 18.9313L52.9938 18.9513C52.7471 19.5248 52.6071 20.1649 52.6071 20.8251V20.8318V20.8584V37.5025V38.256L53.3606 38.3027C55.4144 38.4294 57.3082 39.0896 58.9086 40.1498C59.2287 40.3632 59.5354 40.5899 59.8288 40.83C60.1022 41.0567 60.389 41.3101 60.669 41.5968L60.7824 41.6902ZM18.5854 55.5802L17.7652 55.887L17.4118 56.1471C17.3518 56.2271 17.2784 56.2938 17.1918 56.3538L17.0851 56.4138V56.4205C16.9717 56.4738 16.8517 56.5005 16.725 56.5005H16.705C16.5849 56.5005 16.4782 56.4805 16.3782 56.4405L16.2982 56.4004L16.2182 56.3538L16.1915 56.3404L16.1648 56.3271C15.8047 56.1204 15.3246 55.7603 14.7978 55.3269C14.2644 54.8801 13.6576 54.3333 13.0574 53.7731C11.8838 52.6662 10.5501 51.3325 10.0167 50.8058L9.98999 50.7791C8.30291 49.092 6.58249 48.3118 5.06879 48.2118C4.76205 48.1918 4.45531 48.1984 4.16857 48.2318C3.87517 48.2651 3.58843 48.3251 3.31503 48.4118H3.30836L3.27502 48.4252H3.26835C2.72822 48.5985 2.2281 48.8719 1.78799 49.2254L1.76799 49.2454L1.56127 49.4254L1.52126 49.4588L1.32788 49.6521L1.29453 49.6921L1.28787 49.6988L1.2812 49.7122C0.907775 50.1256 0.607699 50.6124 0.387645 51.1525L0.374311 51.1725L0.274285 51.4526L0.260951 51.5126L0.18093 51.7993L0.17426 51.8327L0.167595 51.8727C-0.212497 53.4597 0.100911 55.3869 1.42123 57.3207C1.66796 57.6874 1.96137 58.0609 2.28144 58.4209C2.60152 58.781 2.96161 59.1478 3.36171 59.5012L3.41505 59.5479L3.48174 59.6079L3.52842 59.6546L3.55509 59.6812L19.9057 76.2186L20.4726 76.8388L20.5126 76.7988C21.4128 77.619 22.293 78.3258 23.1865 78.9326C24.2535 79.6528 25.3337 80.2329 26.454 80.673C27.581 81.1198 28.7612 81.4399 30.0082 81.6466C31.2552 81.8467 32.5688 81.9467 33.9692 81.9467H44.5718C48.106 81.9467 51.3934 80.9064 54.1474 79.126C54.6742 78.7859 55.1944 78.4058 55.6945 77.9991C56.2013 77.5856 56.6747 77.1588 57.1082 76.7187L57.1215 76.7054C58.4618 75.3451 59.5954 73.758 60.4556 72.0176C60.6224 71.6708 60.7824 71.3241 60.9291 70.9773C61.836 68.8168 62.3361 66.4496 62.3428 63.969V63.949V49.9655C62.3428 48.6786 62.1027 47.4383 61.6759 46.3047V46.298C61.5959 46.0913 61.5026 45.8712 61.4025 45.6512C61.3025 45.4378 61.1958 45.2244 61.0825 45.0177L61.0758 45.0043L61.0558 44.971L61.0425 44.9443C60.629 44.2975 60.1356 43.6907 59.5821 43.1505L59.5688 43.1372L59.262 42.8505L59.2353 42.8305L58.9153 42.5571L58.8886 42.5304L58.8753 42.5171C58.1684 41.9503 57.3816 41.4701 56.5347 41.11C56.3413 41.03 56.1546 40.95 56.0279 40.91C54.9876 40.5299 53.8607 40.3232 52.6871 40.3232H52.6604H52.2336L52.0403 40.3499L51.8602 40.3965L51.7202 40.4099H40.204H40.1307H40.0773H40.004H28.4878H28.4545H28.4078H28.3745H27.5209C25.8272 40.4099 24.2268 40.8433 22.8198 41.6035C22.5397 41.7569 22.273 41.9169 22.0263 42.0836H22.0196C21.7795 42.2437 21.5261 42.4304 21.2794 42.6304L21.2727 42.6371L21.2594 42.6504C20.0458 43.644 19.0589 44.9243 18.4254 46.3847C18.292 46.6847 18.1787 46.9782 18.092 47.2582C17.9919 47.5583 17.9119 47.865 17.8386 48.1718V48.1784L17.8319 48.2251L17.8186 48.2985C17.8119 48.3518 17.8052 48.4052 17.7919 48.4452L17.7852 48.4652L17.7586 48.5385L17.7452 48.5785L17.6652 48.8186L17.6252 49.252V49.2787L17.6119 49.4521V49.4788L17.5985 49.7855V49.8055V49.9722V49.9789V52.9329V54.0399L18.6521 53.6931C20.2925 53.153 21.8596 52.7862 23.3399 52.5862C23.6733 52.5395 23.9934 52.5062 24.2868 52.4728C24.5869 52.4462 24.9003 52.4195 25.2137 52.4061L25.8939 52.3861C27.7943 52.3595 29.5481 52.6329 31.1018 53.1663C31.4419 53.2864 31.762 53.4064 32.0487 53.5331C32.3488 53.6664 32.6489 53.8065 32.9289 53.9599L33.4024 54.2333C34.8894 55.1268 36.123 56.3271 37.0633 57.7941C37.2566 58.1009 37.4367 58.3943 37.5834 58.681C37.7434 58.9811 37.8901 59.3078 38.0368 59.6412L38.0435 59.6612C38.497 60.7415 38.8237 61.9285 39.0104 63.2154C39.0504 63.5089 39.0904 63.7956 39.1104 64.069C39.1304 64.2957 39.1571 64.5358 39.1638 64.7758L37.39 64.7958C37.3367 63.8956 37.2033 63.0354 37.0099 62.2352C36.9499 61.9885 36.8899 61.7551 36.8299 61.5484C36.7699 61.3483 36.6965 61.1216 36.6098 60.8949L36.3964 60.3481C35.803 58.9277 34.9428 57.7208 33.8625 56.7605C33.6491 56.5738 33.4224 56.3938 33.2023 56.2271C32.9556 56.047 32.7222 55.887 32.4955 55.7536L32.4822 55.747L32.4621 55.7336C31.3285 55.0535 30.0082 54.58 28.5279 54.3399C28.2278 54.2933 27.901 54.2466 27.5676 54.2199C27.2409 54.1866 26.9008 54.1732 26.574 54.1599H26.554H25.9005H25.8872C24.3535 54.1799 22.6931 54.42 20.926 54.8734C20.5192 54.9734 20.1391 55.0868 19.779 55.2002C19.3656 55.3269 18.9722 55.4602 18.5988 55.5869L18.5854 55.5802ZM30.1749 38.276H38.3036H39.1038V37.4758V4.86787C39.1038 3.52754 38.557 2.30725 37.6768 1.42703C37.3167 1.06694 36.8899 0.753533 36.4231 0.520142L36.4031 0.513474L36.1697 0.400113L36.143 0.386777C35.5696 0.14005 34.9361 1.54619e-05 34.2693 1.54619e-05V-0.00665283H34.2426V1.54619e-05C32.9023 1.54619e-05 31.682 0.546816 30.8017 1.42703C30.4417 1.78712 30.1349 2.21389 29.8949 2.68067L29.8815 2.70067L29.7748 2.93407L29.7615 2.96074C29.5148 3.53421 29.3747 4.1677 29.3747 4.83453V4.8412V4.86787V37.4692V38.2694H30.1749V38.276ZM26.5807 38.3094L26.7274 38.296L27.4743 38.236V37.4958V12.6764C27.4743 11.3361 26.9275 10.1158 26.0472 9.2356C25.6872 8.87552 25.2604 8.56877 24.7869 8.32871L24.7603 8.31538L24.5269 8.20869L24.5069 8.19535C23.9334 7.94862 23.2999 7.80859 22.6331 7.80859H22.6064C21.6595 7.80859 20.766 8.08866 20.0124 8.56877L20.0058 8.57544C19.8591 8.66213 19.719 8.76882 19.5857 8.87552L19.579 8.88218C19.439 8.98888 19.3056 9.10891 19.1856 9.22893L19.1722 9.24227C18.8121 9.60236 18.4987 10.0291 18.2653 10.4959L18.2587 10.5159L18.1453 10.7493L18.132 10.776C17.8853 11.3495 17.7452 11.9896 17.7452 12.6498V12.6764V41.2834L19.1256 41.8436L19.2589 41.7102C20.6326 40.3365 22.3463 39.2963 24.2535 38.7428C24.6336 38.6294 25.027 38.5361 25.4071 38.4694C25.7738 38.3961 26.1739 38.3427 26.5807 38.3094ZM41.8844 38.276H50.0131H50.82V37.4758V20.8518V12.5964C50.82 11.6495 50.5399 10.7493 50.0598 9.99579C49.9664 9.84242 49.8597 9.69572 49.753 9.56235C49.6397 9.41565 49.5196 9.28228 49.4063 9.16892L49.3929 9.15558C49.0329 8.7955 48.6061 8.48875 48.1326 8.2487L48.1126 8.24203L47.8792 8.13533L47.8526 8.122C47.2791 7.87527 46.6456 7.73524 45.9788 7.73524H45.9521C44.6118 7.73524 43.3915 8.28204 42.5113 9.16225C42.1512 9.52234 41.8444 9.94911 41.6044 10.4159L41.5977 10.4359L41.4843 10.6693L41.471 10.696C41.2243 11.2694 41.0843 11.9096 41.0843 12.5698V12.5964V37.4692V38.2694H41.8844V38.276Z" fill="black"/>
</g>
<defs>
<clipPath id="clip0_863_5788">
<rect width="62.3419" height="81.94" fill="white" transform="matrix(-1 0 0 1 62.3418 0)"/>
</clipPath>
</defs>
</svg>
